<svg xmlns="http://www.w3.org/2000/svg" viewBox="0 0 512 512">
  <defs>
    <linearGradient id="g" x1="0" x2="1" y1="0" y2="1">
      <stop offset="0" stop-color="#222"/>
      <stop offset="1" stop-color="#111"/>
    </linearGradient>
  </defs>
  <rect width="512" height="512" fill="#f4f5f7"/>
  <g transform="translate(256,256)">
    <circle r="220" fill="url(#g)" stroke="#000" stroke-opacity=".08" stroke-width="2"/>
    <circle r="170" fill="#2c2f33"/>
    <circle r="120" fill="#ddd"/>
    <circle r="40" fill="#fff"/>
    <!-- treads -->
    <g stroke="#444" stroke-width="12" stroke-linecap="round">
      <line x1="-180" y1="-60" x2="-120" y2="-20"/>
      <line x1="-160" y1="-100" x2="-90" y2="-70"/>
      <line x1="-180" y1="60" x2="-120" y2="20"/>
      <line x1="-160" y1="100" x2="-90" y2="70"/>
      <line x1="180" y1="-60" x2="120" y2="-20"/>
      <line x1="160" y1="-100" x2="90" y2="-70"/>
      <line x1="180" y1="60" x2="120" y2="20"/>
      <line x1="160" y1="100" x2="90" y2="70"/>
    </g>
    <!-- spokes -->
    <g stroke="#aaa" stroke-width="20">
      <line x1="0" y1="-120" x2="0" y2="120"/>
      <line x1="-120" y1="0" x2="120" y2="0"/>
      <line x1="85" y1="-85" x2="-85" y2="85"/>
      <line x1="-85" y1="-85" x2="85" y2="85"/>
    </g>
  </g>
</svg>
